HIERARCHY
ROOT Hips
{
  OFFSET -0.336918 92.138 259.118
  CHANNELS 6 Xposition Yposition Zposition Zrotation Xrotation Yrotation
  JOINT Spine
  {
    OFFSET -0.000355721 21.3001 -0.016921
    CHANNELS 3 Zrotation Xrotation Yrotation
    JOINT LeftArm
    {
      OFFSET 13.5181 21.3012 0
      CHANNELS 3 Zrotation Xrotation Yrotation
      JOINT LeftForeArm
      {
        OFFSET 24.5783 0 0
        CHANNELS 3 Zrotation Xrotation Yrotation
        JOINT LeftHand
        {
          OFFSET 24.5783 0 0
          CHANNELS 3 Zrotation Xrotation Yrotation
          End Site
          {
            OFFSET 7.32568 1.52588e-05 0.0169305
          }
        }
      }
    }
    JOINT Head
    {
      OFFSET 0 27.4458 -0.00489235
      CHANNELS 3 Zrotation Xrotation Yrotation
      End Site
      {
        OFFSET 0 0 0
      }
    }
    JOINT RightArm
    {
      OFFSET -13.5174 21.3012 0
      CHANNELS 3 Zrotation Xrotation Yrotation
      JOINT RightForeArm
      {
        OFFSET -24.5783 0 0
        CHANNELS 3 Zrotation Xrotation Yrotation
        JOINT RightHand
        {
          OFFSET -24.5783 0 0
          CHANNELS 3 Zrotation Xrotation Yrotation
          End Site
          {
            OFFSET -7.32568 1.52588e-05 0.0169305
          }
        }
      }
    }
  }
  JOINT RightUpLeg
  {
    OFFSET -8.44614 -9.41038 0.835684
    CHANNELS 3 Zrotation Xrotation Yrotation
    JOINT RightLeg
    {
      OFFSET 0 -40.9639 0
      CHANNELS 3 Zrotation Xrotation Yrotation
      JOINT RightFoot
      {
        OFFSET 0 -40.9639 0
        CHANNELS 3 Zrotation Xrotation Yrotation
        End Site
        {
          OFFSET 0.50614 -9.67405 14.6709
        }
      }
    }
  }
  JOINT LeftUpLeg
  {
    OFFSET 8.44614 -9.41038 0.835684
    CHANNELS 3 Zrotation Xrotation Yrotation
    JOINT LeftLeg
    {
      OFFSET 0 -40.9639 0
      CHANNELS 3 Zrotation Xrotation Yrotation
      JOINT LeftFoot
      {
        OFFSET 0 -40.9639 0
        CHANNELS 3 Zrotation Xrotation Yrotation
        End Site
        {
          OFFSET -0.50614 -9.67405 14.6709
        }
      }
    }
  }
}
MOTION
Frames:	23
Frame Time:	0.0333333
10.3339 91.9569 132.387 -6.07395 2.15566 -49.0264 -4.58333 5.05082 -6.04287 -23.2829 21.5689 -43.0141 0.000351654 2.38059e-05 -48.2531 18.5752 -29.4294 -7.34218 3.64608 7.73703 -20.6763 87.6071 14.5593 -39.6522 -1.91059e-05 -3.71587e-06 27.2571 9.94713 -3.20253 -12.7469 8.16096 -25.9043 -13.3339 -14.9161 46.0163 20.6215 6.87668 -38.2045 4.01816 7.75711 2.58095 32.8284 4.75562 28.2931 4.64937 -12.948 -55.7316 -2.88364 
10.5147 91.9799 135.066 -5.7553 2.52607 -46.8153 -4.11629 5.09877 -6.16674 -24.0591 21.4914 -46.1095 0.00035359 2.14399e-05 -53.154 17.6448 -26.2248 -7.48805 3.57822 6.57731 -18.5602 88.9632 17.6322 -34.8792 -1.89991e-05 -3.65889e-06 28.9162 7.46184 -2.32026 -14.8368 11.0814 -26.2624 -15.3785 -13.3226 38.4353 18.1942 8.23558 -37.4938 4.71642 6.27623 3.94471 32.0544 4.08982 26.0183 3.90025 -12.0436 -56.3486 -2.78381 
10.5562 91.9167 137.831 -5.37511 2.82288 -44.1077 -3.70644 5.14046 -6.19525 -24.5048 22.4055 -49.6791 0.000354858 1.96349e-05 -56.6892 15.1061 -22.3217 -8.02166 3.64284 5.5421 -17.3759 89.3875 20.3142 -30.1559 -1.88858e-05 -3.59396e-06 30.7065 2.46153 -2.16497 -16.5663 13.1588 -26.3464 -17.5175 -11.1302 30.5231 15.6007 8.66898 -36.6147 4.23155 4.85185 5.61922 31.4351 3.50647 23.3588 2.49519 -11.1372 -56.7868 -2.63881 
10.4613 91.7561 140.72 -4.88446 3.06274 -40.8833 -3.32264 5.13107 -6.25505 -24.098 24.3736 -53.6408 0.000355633 1.84021e-05 -59.0226 12.855 -18.5493 -8.36606 3.92967 4.50023 -16.9959 88.9776 23.0436 -25.7665 -1.87343e-05 -3.49955e-06 33.1533 -3.82909 -3.67673 -18.3554 13.5126 -26.0758 -18.4848 -6.09711 22.9205 12.352 6.92452 -36.0356 1.84997 3.39594 7.71293 31.1387 3.05723 20.0688 0.241627 -10.1629 -56.9535 -2.41232 
10.2341 91.4577 143.754 -4.3113 3.30408 -37.2676 -2.95203 5.02967 -6.44873 -22.413 27.1173 -57.8275 0.00035619 1.744e-05 -60.8046 11.9771 -15.4582 -7.78484 4.29526 3.32024 -17.1318 87.2562 25.8452 -21.5628 -1.8541e-05 -3.36534e-06 36.3798 -8.94218 -7.20711 -20.259 13.5376 -25.6383 -18.0766 -2.01567 15.431 9.48134 5.58488 -35.7736 -0.148212 1.80436 10.3058 30.6588 2.74883 15.9507 -2.10028 -9.38513 -56.7468 -2.17792 
9.88371 91.0402 146.941 -3.76935 3.62985 -33.516 -2.51497 4.86439 -6.7 -19.5054 30.1869 -62.114 0.000356588 1.67084e-05 -62.139 11.7212 -12.6991 -6.59338 4.52877 1.99049 -17.3816 83.9568 28.2541 -17.2052 -1.83574e-05 -3.2221e-06 39.5712 -10.9914 -11.6767 -21.5329 13.331 -26.0223 -17.1315 0.174305 10.3018 7.46131 4.46548 -35.8389 -0.174643 -0.0908655 13.958 29.5902 2.48576 9.83992 -3.57974 -9.10707 -55.5937 -1.96425 
9.4205 90.4978 150.244 -3.35153 4.04655 -29.8252 -1.92915 4.71374 -6.7791 -15.7679 33.1532 -66.4202 0.000356765 1.63685e-05 -62.7534 10.7204 -9.43961 -5.82601 4.53074 0.579915 -17.4936 79.5996 29.7691 -12.6386 -1.82555e-05 -3.13509e-06 41.408 -10.3977 -14.9733 -21.5272 12.8004 -28.2333 -16.1508 0.303846 10.3687 7.71512 2.15058 -36.4937 -0.209255 -0.847512 16.4671 28.0738 2.40564 6.83934 -4.26931 -10.7875 -54.2723 -3.46068 
8.84791 89.972 153.633 -3.10526 4.48509 -26.2396 -1.15373 4.63343 -6.57072 -11.4971 35.8097 -70.6682 0.000356713 1.647e-05 -62.5703 8.83074 -5.75256 -5.73854 4.35412 -0.820065 -17.3955 75.0561 30.3777 -8.03872 -1.82704e-05 -3.14811e-06 41.1376 -9.04144 -15.8441 -20.5973 12.2715 -31.2983 -15.2551 -1.48933 14.4552 8.83471 -1.28912 -36.5472 -0.264873 -0.281098 17.2844 26.8157 2.76699 8.13505 -4.60019 -15.229 -52.9581 -7.58223 
8.16071 89.472 157.102 -3.00885 4.83191 -22.8931 -0.286376 4.64806 -6.12897 -6.99004 38.3283 -74.464 0.000356474 1.69218e-05 -61.7515 7.20266 -2.70651 -5.677 4.22904 -2.04872 -16.915 70.8148 30.6052 -3.32291 -1.83962e-05 -3.25376e-06 38.885 -8.29832 -14.8392 -19.9343 11.6692 -34.0801 -14.9983 -4.60127 20.4371 9.87387 -4.06366 -35.723 -0.261766 0.858485 16.5421 26.1018 4.12267 12.4138 -5.36787 -20.7842 -50.5133 -12.5201 
7.38443 88.9691 160.632 -3.01899 5.02265 -20.0767 0.400381 4.7411 -5.55301 -2.67936 41.2191 -77.2483 0.000355991 1.77909e-05 -60.1584 6.92109 -1.14272 -5.30421 4.34235 -2.92615 -15.7443 66.9223 31.0324 1.77738 -1.85942e-05 -3.40396e-06 35.4778 -7.96616 -13.2005 -20.3978 10.8785 -35.9549 -15.9354 -8.21865 26.5434 11.0134 -5.09515 -35.0883 -0.240389 2.52275 14.6928 25.4055 6.12837 19.4783 -7.44791 -25.3515 -46.1261 -15.5915 
6.58912 88.5557 164.154 -3.22823 5.14744 -18.0573 0.996467 4.86108 -4.80848 0.687406 44.6856 -78.1886 0.000355379 1.88176e-05 -58.2427 7.89372 -1.33769 -4.23756 4.58839 -3.40019 -13.8331 63.2504 31.9028 7.00583 -1.87714e-05 -3.5235e-06 32.5483 -7.37336 -11.3055 -22.0838 10.1898 -36.628 -17.7801 -11.4761 31.4122 12.4541 -5.18084 -35.6753 -0.295357 4.57996 11.431 24.4702 9.04523 29.0593 -11.0966 -27.8995 -39.5192 -15.2088 
5.83435 88.3266 167.536 -3.63171 5.32978 -16.7353 1.80045 4.93501 -3.89618 2.45563 48.6568 -77.0285 0.000354551 2.00942e-05 -55.8038 9.43092 -3.20996 -2.86387 4.76686 -3.66095 -11.5823 59.5978 33.0933 11.8787 -1.88357e-05 -3.56376e-06 31.5076 -6.38146 -9.15181 -24.3573 9.27352 -36.539 -19.5473 -12.9548 35.4125 13.2159 -5.36497 -37.4427 -0.399851 7.21731 7.18763 23.3421 12.5716 40.4071 -15.964 -26.0847 -35.1551 -13.3326 
5.18496 88.2055 170.724 -4.06692 5.6059 -15.7035 2.80303 4.92974 -2.96388 1.91926 52.5606 -73.4906 0.000353532 2.15176e-05 -52.9982 10.4129 -6.18866 -1.4731 4.82167 -3.95718 -9.46036 55.7287 34.2822 16.536 -1.8797e-05 -3.5397e-06 32.1332 -5.01085 -7.51752 -25.8616 8.78992 -36.0661 -20.0202 -13.7675 38.528 12.9548 -5.38011 -40.1748 -0.546493 10.1897 1.57848 21.9895 16.7666 52.8147 -22.5626 -24.1104 -31.2472 -9.99921 
4.59202 88.371 173.881 -4.30276 5.85028 -14.8483 3.47599 4.84308 -2.01096 -2.22926 55.9025 -67.0224 0.000351962 2.34561e-05 -49.0002 10.0722 -9.38989 -0.521438 4.67172 -4.43242 -7.58706 51.5451 35.2593 21.0383 -1.86991e-05 -3.47632e-06 33.7313 -3.57579 -7.46872 -25.8083 8.63328 -34.8059 -19.8044 -14.38 40.0803 12.2761 -4.93554 -42.8153 -0.676722 12.383 -4.52021 20.7742 22.6842 63.3367 -29.72 -23.7893 -29.3027 -7.25141 
3.95774 88.9216 177.168 -4.16162 5.83359 -14.3507 3.55346 4.73875 -0.985444 -11.2302 57.9791 -56.4418 0.000349878 2.56578e-05 -44.14 8.77136 -12.4701 0.500991 4.28644 -4.97163 -5.79974 47.13 36.2162 25.4328 -1.85825e-05 -3.39553e-06 35.6764 -3.12764 -9.30437 -24.6063 8.12083 -32.4071 -20.1513 -14.6593 40.055 12.0448 -4.81273 -45.0775 -0.852594 13.615 -10.4095 20.4933 29.7921 69.7107 -37.3618 -23.0511 -30.2639 -5.62532 
3.25713 89.7642 180.611 -3.68952 5.41206 -14.2668 3.09287 4.68128 0.137612 -23.0876 58.1936 -43.1645 0.000347688 2.7615e-05 -39.4318 7.61319 -16.1439 3.41675 3.84511 -5.37562 -4.03645 42.8757 37.2885 29.5261 -1.84528e-05 -3.29855e-06 37.8965 -4.2723 -12.2916 -23.3082 7.29526 -28.828 -20.9177 -14.6335 38.6799 12.1918 -4.96571 -46.9479 -1.07471 14.4497 -15.5903 21.4875 33.5574 71.9049 -41.2563 -20.0459 -32.8926 -5.77007 
2.53759 90.702 184.151 -3.10639 4.6638 -14.3339 2.26378 4.69956 1.28659 -33.5835 56.9419 -30.8397 0.000345938 2.89652e-05 -35.8897 7.23963 -21.3347 10.6628 3.6146 -5.56758 -2.4937 39.3601 38.1674 32.7866 -1.8287e-05 -3.16252e-06 40.8364 -6.34285 -15.0874 -22.4783 6.54914 -24.3932 -21.3199 -14.2937 36.3413 12.0183 -4.40638 -48.0504 -1.12932 15.0276 -19.9098 23.2894 31.5532 70.8942 -39.2089 -16.0999 -35.5267 -6.88536 
1.84406 91.5278 187.697 -2.57508 3.86351 -14.2825 1.33894 4.76966 2.31915 -40.882 55.19 -21.1735 0.000344586 2.98973e-05 -33.2574 7.26401 -27.3163 19.9027 3.66743 -5.65901 -1.38251 36.8078 38.5202 34.9946 -1.80841e-05 -2.97514e-06 44.6222 -8.28354 -16.8094 -21.819 5.5849 -19.6308 -21.3874 -12.9111 33.7425 10.9825 -3.9004 -48.9561 -1.08934 15.1711 -23.6575 25.0488 26.1444 67.3997 -33.8569 -13.2438 -37.2664 -7.82541 
1.18751 92.1392 191.195 -2.09073 3.31509 -13.9494 0.451405 4.79653 3.14727 -45.612 53.4612 -13.7524 0.000343232 3.07428e-05 -30.6988 6.28748 -32.1689 24.2193 3.75463 -5.90699 -0.666598 35.0275 38.2848 36.2832 -1.78731e-05 -2.75096e-06 48.8432 -9.59531 -17.5017 -20.7658 4.67969 -15.0769 -21.683 -11.4748 30.9122 9.9656 -3.4064 -49.8178 -1.02037 14.976 -27.1133 26.4083 20.0704 61.9686 -27.4966 -11.6732 -38.0748 -8.76505 
0.563859 92.5571 194.657 -1.56659 3.14774 -13.391 -0.35222 4.70878 3.77184 -48.8569 51.6464 -7.94169 0.000341972 3.14565e-05 -28.3787 3.99172 -34.7156 22.1251 3.61826 -6.46133 -0.115559 33.8063 37.7305 36.9596 -1.76864e-05 -2.52147e-06 52.8992 -10.7881 -17.3617 -19.4279 3.62483 -10.8743 -22.4848 -9.75408 27.9726 9.23043 -3.22513 -50.6246 -0.965137 14.211 -30.3388 27.8331 15.9563 54.4869 -22.7411 -10.3484 -38.033 -9.21237 
-0.033528 92.852 198.134 -0.994111 3.22641 -12.7487 -1.15454 4.53895 4.21568 -51.3386 49.5098 -3.29045 0.000341055 3.19352e-05 -26.7198 2.12637 -34.7012 17.579 3.27212 -7.21649 0.484971 33.1787 37.1819 37.1683 -1.75334e-05 -2.30531e-06 56.5295 -12.2534 -16.5376 -18.6477 2.61848 -6.68084 -23.2969 -7.80012 24.5722 8.48666 -3.21961 -51.1094 -0.905612 12.9877 -32.7312 29.4714 13.1624 45.9225 -18.2939 -9.86832 -37.5849 -10.7734 
-0.582924 93.0294 201.73 -0.51917 3.283 -12.0869 -2.02737 4.40362 4.48962 -53.5419 47.0277 0.633306 0.000340528 3.2195e-05 -25.7785 2.18524 -32.9087 13.9858 2.99236 -7.89754 1.22535 33.259 36.7808 36.8 -1.74059e-05 -2.09971e-06 59.8463 -12.9783 -15.4105 -18.7244 2.09655 -1.98027 -23.6391 -6.03341 20.2342 7.34353 -2.96629 -50.9777 -0.774883 12.1064 -34.377 30.7306 9.15985 36.7547 -13.4768 -9.06279 -36.2711 -11.8951 
-1.01426 92.89 205.322 -0.285469 3.15761 -11.38 -2.71344 4.32325 4.71049 -55.6887 44.279 4.44682 0.000341062 3.19314e-05 -26.7333 3.82776 -30.7131 12.548 3.1296 -8.39396 2.11548 34.0195 36.5571 35.8176 -1.73063e-05 -1.91801e-06 62.687 -12.1021 -14.3137 -19.011 2.04794 2.55189 -23.7735 -5.06739 16.4716 5.97301 -2.38625 -50.8056 -0.614289 11.64 -34.4781 30.8386 3.64196 27.4237 -9.49561 -6.31683 -35.0405 -10.6749 
